<svg xmlns="http://www.w3.org/2000/svg" version="1.1" viewBox="-5.0 -10.0 110.0 135.0">
  <path
    d="m55.668 51.285 14.461 3.7734c0.64453 0.16797 1.0742 0.75 1.0742 1.3906h0.003906v11.039c0 13.07-10.301 23.402-20.527 28.902-0.44922 0.24219-0.97266 0.21875-1.3867-0.011719-10.25-5.6367-20.504-15.719-20.504-28.887v-11.039c0-0.71094 0.51563-1.3008 1.1953-1.418l14.348-3.7422v-29.703l-5.5391-9.7539c-0.78516 0-2.2188 0.054687-2.2188-1.4414v-5.5117c0-0.79687 0.64453-1.4414 1.4414-1.4414h23.965c0.79688 0 1.4414 0.64453 1.4414 1.4414v5.5156c0 1.4922-1.4297 1.4414-2.2188 1.4414l-5.5391 9.7539zm-9.0625-31.508h6.7891l4.5078-7.9414h-15.805zm13.938-13.457h-21.086v2.6328h21.086zm-16.211 47.93-12.66 3.3047v9.9336c0 11.641 9.2383 20.906 18.328 25.996 9.0898-5.0898 18.328-14.359 18.328-25.996v-9.9336l-12.66-3.3047c0 1.6328 0.27734 4.7852-0.35547 5.5508l-4.1836 5.332c-0.62109 0.79297-1.7578 0.69141-2.3242-0.085937-1.1641-1.6016-4.4688-5.168-4.4688-6.1914h-0.007813zm8.457-31.594h-5.5742v35.707l2.7852 3.5508 2.7891-3.5586z"
    fill-rule="evenodd" stroke="#000" stroke-width="2" />
</svg>